# File created by Blade
# Date/Time:  Tue Jan 27 19:54:32 2015
#---------------------------------------------------------
:version 1.10
:name HOM
:units
  mass 1.0
  length 1.000000
  angle deg
:documentation
     Acclaim Skeleton File
:root
   axis xyz
   order TX TY TZ RX RY RZ
   position 0.000000 0.000000 0.000000
   orientation 0 0 0
:bonedata
   begin
      id 1
      name Spine_dum
      direction 0.000000 1.000000 0.000000
      length 6.116652
      axis 0.0 0.0 0.0 xyz
   end
   begin
      id 2
      name LeftUpLeg_dum
      direction 1.000000 0.000000 0.000000
      length 4.711765
      axis 0.0 0.0 0.0 xyz
   end
   begin
      id 3
      name RightUpLeg_dum
      direction -1.000000 0.000000 0.000000
      length 4.711765
      axis 0.0 0.0 0.0 xyz
   end
   begin
      id 4
      name Spine
      direction 0.000000 1.000000 0.000000
      length 0.000000
      axis 0.0 0.0 0.0 xyz
      dof rx ry rz
   end
   begin
      id 5
      name Spine_dum1
      direction 0.000000 1.000000 0.000000
      length 15.225563
      axis 0.0 0.0 0.0 xyz
   end
   begin
      id 6
      name Spine_dum2
      direction 0.000000 1.000000 0.000000
      length 8.977654
      axis 0.0 0.0 0.0 xyz
   end
   begin
      id 7
      name Spine_dum3
      direction 0.000000 1.000000 0.000000
      length 8.977654
      axis 0.0 0.0 0.0 xyz
   end
   begin
      id 8
      name Head
      direction 0.000000 1.000000 0.000000
      length 4.527550
      axis 0.0 0.0 0.0 xyz
      dof rx ry rz
   end
   begin
      id 9
      name LeftShoulder
      direction 1.000000 0.000000 0.000000
      length 7.110130
      axis 0.0 0.0 -90.0 xyz
      dof rx ry rz
   end
   begin
      id 10
      name LeftArm
      direction 1.000000 0.000000 0.000000
      length 10.398341
      axis 0.0 0.0 -90.0 xyz
      dof rx ry rz
   end
   begin
      id 11
      name LeftForeArm
      direction 1.000000 0.000000 0.000000
      length 8.888997
      axis 0.0 0.0 -90.0 xyz
      dof ry rz rx
   end
   begin
      id 12
      name LeftHand
      direction 0.000000 0.000000 0.000000
      length 0.000000
      axis 0.0 0.0 -90.0 xyz
      dof rx ry rz
   end
   begin
      id 13
      name LeftHand_dum1
      direction 0.000000 0.000000 0.000000
      length 0.000000
      axis 0.0 0.0 -90.0 xyz
   end
   begin
      id 14
      name LeftHand_dum2
      direction 1.000000 0.000000 0.000000
      length 3.937000
      axis 0.0 0.0 -90.0 xyz
   end
   begin
      id 15
      name LeftHandThumb1
      direction 0.000000 0.000000 1.000000
      length 3.937000
      axis 0.0 0.0 -90.0 xyz
      dof rx rz ry
   end
   begin
      id 16
      name RightShoulder
      direction -1.000000 0.000000 0.000000
      length 7.110130
      axis 0.0 0.0 90.0 xyz
      dof rx ry rz
   end
   begin
      id 17
      name RightArm
      direction -1.000000 0.000000 0.000000
      length 10.398341
      axis 0.0 0.0 90.0 xyz
      dof rx ry rz
   end
   begin
      id 18
      name RightForeArm
      direction -1.000000 0.000000 0.000000
      length 8.888997
      axis 0.0 0.0 90.0 xyz
      dof ry rz rx
   end
   begin
      id 19
      name RightHand
      direction 0.000000 0.000000 0.000000
      length 0.000000
      axis 0.0 0.0 90.0 xyz
      dof rx ry rz
   end
   begin
      id 20
      name RightHand_dum1
      direction 0.000000 0.000000 0.000000
      length 0.000000
      axis 0.0 0.0 90.0 xyz
   end
   begin
      id 21
      name RightHand_dum2
      direction -1.000000 0.000000 0.000000
      length 3.937000
      axis 0.0 0.0 90.0 xyz
   end
   begin
      id 22
      name RightHandThumb1
      direction 0.000000 0.000000 1.000000
      length 3.937000
      axis 0.0 0.0 90.0 xyz
      dof rx rz ry
   end
   begin
      id 23
      name LeftUpLeg
      direction 0.000000 -1.000000 0.000000
      length 15.510451
      axis 0.0 0.0 0.0 xyz
      dof rx ry rz
   end
   begin
      id 24
      name LeftLeg
      direction 0.000000 -1.000000 0.000000
      length 14.858061
      axis 0.0 0.0 0.0 xyz
      dof rx ry rz
   end
   begin
      id 25
      name LeftFoot
      direction 0.000000 -0.258819 0.965926
      length 5.128852
      axis 15.0 0.0 0.0 xyz
      dof rx ry rz
   end
   begin
      id 26
      name LeftToeBase
      direction 0.000000 0.000000 1.000000
      length 2.952750
      axis 0.0 0.0 0.0 xyz
      dof rx ry rz
   end
   begin
      id 27
      name RightUpLeg
      direction 0.000000 -1.000000 0.000000
      length 15.510451
      axis 0.0 0.0 0.0 xyz
      dof rx ry rz
   end
   begin
      id 28
      name RightLeg
      direction 0.000000 -1.000000 0.000000
      length 14.858061
      axis 0.0 0.0 0.0 xyz
      dof rx ry rz
   end
   begin
      id 29
      name RightFoot
      direction 0.000000 -0.258819 0.965926
      length 5.128852
      axis 15.0 0.0 0.0 xyz
      dof rx ry rz
   end
   begin
      id 30
      name RightToeBase
      direction 0.000000 0.000000 1.000000
      length 2.952750
      axis 0.0 0.0 0.0 xyz
      dof rx ry rz
   end
:hierarchy
   begin
      root Spine_dum LeftUpLeg_dum RightUpLeg_dum
      Spine_dum Spine
      LeftUpLeg_dum LeftUpLeg
      RightUpLeg_dum RightUpLeg
      Spine Spine_dum1 Spine_dum2 Spine_dum3
      Spine_dum1 Head
      Spine_dum2 LeftShoulder
      Spine_dum3 RightShoulder
      LeftShoulder LeftArm
      LeftArm LeftForeArm
      LeftForeArm LeftHand
      LeftHand LeftHand_dum1 LeftHand_dum2
      LeftHand_dum1 LeftHandThumb1
      RightShoulder RightArm
      RightArm RightForeArm
      RightForeArm RightHand
      RightHand RightHand_dum1 RightHand_dum2
      RightHand_dum1 RightHandThumb1
      LeftUpLeg LeftLeg
      LeftLeg LeftFoot
      LeftFoot LeftToeBase
      RightUpLeg RightLeg
      RightLeg RightFoot
      RightFoot RightToeBase
   end

# File created by Blade
# Date/Time:  Tue Jan 27 19:54:25 2015
# Frame Rate: 120.000 fps
#------------------------------------------------------
:FULLY-SPECIFIED
:DEGREES
918
root 5.808471 32.843397 0.086676 -8.321313 -8.911789 -10.914871
Spine 10.225188 13.709960 10.698799
Head 6.646277 -10.119217 2.387072
LeftShoulder -13.913653 1.569364 29.398069
LeftArm -12.174616 27.457207 -91.316772
LeftForeArm 1.992375 -0.000000 90.146709
LeftHand 23.996562 -0.000000 41.879281
LeftHandThumb1 -26.253704 0.000000 33.147579
RightShoulder -18.302361 -15.995905 -21.595770
RightArm 10.764389 -27.563913 85.777625
RightForeArm -15.928464 -0.000000 26.580344
RightHand 16.328475 -0.000000 9.228671
RightHandThumb1 -24.326973 -0.000000 -32.862282
LeftUpLeg 14.055476 5.464235 3.499644
LeftLeg 2.999509 -0.000000 -0.000000
LeftFoot -20.500067 17.916953 -16.961978
LeftToeBase 18.265659 -0.000000 -0.000000
RightUpLeg -76.393183 8.690188 19.322234
RightLeg 110.081184 -0.000000 -0.000000
RightFoot 16.335964 -35.335069 21.476752
RightToeBase 10.802232 -0.000000 -0.000000
919
root 5.804410 32.837976 0.112173 -8.362602 -8.926970 -10.912039
Spine 10.275393 13.661628 10.703755
Head 6.557903 -10.096505 2.414702
LeftShoulder -13.867984 1.571311 29.406830
LeftArm -12.120356 27.539516 -91.322386
LeftForeArm 1.980140 -0.000000 90.141241
LeftHand 24.151050 -0.000000 41.723585
LeftHandThumb1 -26.253704 0.000000 33.147579
RightShoulder -18.332009 -15.980268 -21.586806
RightArm 10.680475 -27.660505 85.935064
RightForeArm -15.892536 -0.000000 26.679541
RightHand 16.339742 0.000000 9.357473
RightHandThumb1 -24.326973 -0.000000 -32.862282
LeftUpLeg 14.153275 5.620006 3.545893
LeftLeg 2.994845 -0.000000 -0.000000
LeftFoot -20.520479 17.768975 -16.931644
LeftToeBase 18.226111 -0.000000 -0.000000
RightUpLeg -76.347929 8.791185 19.239080
RightLeg 109.924434 -0.000000 -0.000000
RightFoot 16.241514 -35.337334 21.553668
RightToeBase 11.093851 -0.000000 -0.000000
920
root 5.801905 32.831685 0.137995 -8.411792 -8.931944 -10.882666
Spine 10.328713 13.569453 10.683203
Head 6.484689 -10.061437 2.407663
LeftShoulder -13.898807 1.634873 29.413636
LeftArm -11.989336 27.686505 -91.306510
LeftForeArm 1.985352 -0.000000 90.106826
LeftHand 24.121349 -0.000000 41.801790
LeftHandThumb1 -26.253704 0.000000 33.147579
RightShoulder -18.333691 -15.961218 -21.578311
RightArm 10.630489 -27.838692 86.053927
RightForeArm -15.830716 0.000000 26.752701
RightHand 16.271113 0.000000 9.332459
RightHandThumb1 -24.326973 -0.000000 -32.862282
LeftUpLeg 14.257181 5.718622 3.544931
LeftLeg 2.979417 -0.000000 -0.000000
LeftFoot -20.534420 17.692119 -16.882943
LeftToeBase 18.210170 -0.000000 -0.000000
RightUpLeg -76.322872 8.866456 19.136490
RightLeg 109.797789 -0.000000 -0.000000
RightFoot 16.364603 -35.301164 21.427623
RightToeBase 11.178947 -0.000000 -0.000000
921
root 5.800662 32.824281 0.163288 -8.468359 -8.938941 -10.826593
Spine 10.385815 13.478734 10.627705
Head 6.407974 -9.995748 2.409882
LeftShoulder -13.874038 1.589502 29.419525
LeftArm -12.024074 27.733180 -91.331386
LeftForeArm 1.879643 -0.000000 90.125069
LeftHand 24.235794 -0.000000 41.722237
LeftHandThumb1 -26.253704 0.000000 33.147579
RightShoulder -18.320683 -15.999019 -21.537870
RightArm 10.645496 -27.958875 86.136659
RightForeArm -15.796799 0.000000 26.803211
RightHand 16.225873 -0.000000 9.415187
RightHandThumb1 -24.326973 -0.000000 -32.862282
LeftUpLeg 14.372287 5.783170 3.506653
LeftLeg 2.955909 -0.000000 -0.000000
LeftFoot -20.559368 17.631057 -16.886116
LeftToeBase 18.136821 -0.000000 -0.000000
RightUpLeg -76.312316 8.929384 19.012758
RightLeg 109.683993 -0.000000 -0.000000
RightFoot 16.382233 -35.260776 21.480847
RightToeBase 10.676442 -0.000000 -0.000000
922
root 5.799233 32.818548 0.189451 -8.506074 -8.943420 -10.786416
Spine 10.407787 13.389539 10.593345
Head 6.367781 -9.962739 2.398386
LeftShoulder -13.859956 1.564310 29.408195
LeftArm -12.045627 27.777096 -91.362543
LeftForeArm 1.915882 -0.000000 90.104641
LeftHand 24.333197 -0.000000 41.919215
LeftHandThumb1 -26.253704 0.000000 33.147579
RightShoulder -18.324070 -16.052250 -21.486969
RightArm 10.672535 -28.107093 86.213735
RightForeArm -15.753017 -0.000000 26.801767
RightHand 16.235209 -0.000000 9.079852
RightHandThumb1 -24.326973 -0.000000 -32.862282
LeftUpLeg 14.486129 5.841002 3.487812
LeftLeg 2.883941 -0.000000 -0.000000
LeftFoot -20.549496 17.585346 -16.880428
LeftToeBase 18.165197 -0.000000 -0.000000
RightUpLeg -76.307923 8.990666 18.922146
RightLeg 109.568579 -0.000000 -0.000000
RightFoot 16.401337 -35.234280 21.374703
RightToeBase 11.268375 -0.000000 -0.000000
923
root 5.797836 32.812524 0.215329 -8.551820 -8.955880 -10.743844
Spine 10.445863 13.331683 10.558141
Head 6.334162 -9.908288 2.395561
LeftShoulder -13.850427 1.538430 29.414275
LeftArm -12.041496 27.843989 -91.400892
LeftForeArm 1.864904 -0.000000 90.097770
LeftHand 24.279234 -0.000000 41.966734
LeftHandThumb1 -26.253704 0.000000 33.147579
RightShoulder -18.359286 -16.063009 -21.438956
RightArm 10.654675 -28.241885 86.304207
RightForeArm -15.769092 -0.000000 26.790100
RightHand 16.230759 -0.000000 9.251769
RightHandThumb1 -24.326973 -0.000000 -32.862282
LeftUpLeg 14.618476 5.873959 3.456621
LeftLeg 2.801925 -0.000000 -0.000000
LeftFoot -20.545711 17.579075 -16.873835
LeftToeBase 18.099234 -0.000000 -0.000000
RightUpLeg -76.308444 9.052416 18.822686
RightLeg 109.471773 -0.000000 -0.000000
RightFoot 16.405560 -35.159973 21.463048
RightToeBase 11.133580 -0.000000 -0.000000
924
root 5.795242 32.806626 0.241427 -8.594786 -8.970017 -10.689199
Spine 10.467778 13.309198 10.501799
Head 6.331691 -9.886794 2.409370
LeftShoulder -13.764253 1.509944 29.428308
LeftArm -12.084621 27.846210 -91.437124
LeftForeArm 1.964371 -0.000000 90.111020
LeftHand 24.212420 -0.000000 42.152439
LeftHandThumb1 -26.253704 0.000000 33.147579
RightShoulder -18.408322 -16.046428 -21.382778
RightArm 10.580134 -28.271178 86.463988
RightForeArm -15.993114 0.000000 26.709309
RightHand 16.269573 -0.000000 9.199694
RightHandThumb1 -24.326973 -0.000000 -32.862282
LeftUpLeg 14.748817 5.899889 3.413578
LeftLeg 2.717623 -0.000000 -0.000000
LeftFoot -20.552602 17.559602 -16.910470
LeftToeBase 18.136448 -0.000000 -0.000000
RightUpLeg -76.315362 9.106645 18.741683
RightLeg 109.386679 -0.000000 -0.000000
RightFoot 16.469963 -35.127732 21.244123
RightToeBase 11.448083 -0.000000 -0.000000
925
root 5.792025 32.800923 0.266794 -8.622623 -8.973199 -10.633044
Spine 10.463087 13.243120 10.432854
Head 6.347019 -9.842249 2.414009
LeftShoulder -13.762968 1.592702 29.442219
LeftArm -11.971845 27.899417 -91.431601
LeftForeArm 1.885015 0.000000 90.060321
LeftHand 24.428511 -0.000000 42.147460
LeftHandThumb1 -26.253704 0.000000 33.147579
RightShoulder -18.427352 -16.001561 -21.344388
RightArm 10.492700 -28.525762 86.548445
RightForeArm -15.855046 0.000000 26.682271
RightHand 16.229020 -0.000000 9.073732
RightHandThumb1 -24.326973 -0.000000 -32.862282
LeftUpLeg 14.862690 5.881820 3.360282
LeftLeg 2.627319 -0.000000 -0.000000
LeftFoot -20.556171 17.566670 -16.959900
LeftToeBase 18.141579 -0.000000 -0.000000
RightUpLeg -76.337024 9.140603 18.660018
RightLeg 109.300697 -0.000000 -0.000000
RightFoot 16.559447 -35.052762 21.181184
RightToeBase 11.263872 -0.000000 -0.000000
926
root 5.789978 32.797512 0.292252 -8.646299 -8.973803 -10.585391
Spine 10.436704 13.158266 10.362656
Head 6.415009 -9.787285 2.445417
LeftShoulder -13.701480 1.390826 29.462364
LeftArm -12.270967 27.872048 -91.542346
LeftForeArm 1.976778 0.000000 90.117866
LeftHand 24.264845 0.000000 42.282660
LeftHandThumb1 -26.253704 0.000000 33.147579
RightShoulder -18.397908 -16.023746 -21.271407
RightArm 10.423861 -28.634639 86.623202
RightForeArm -16.080093 -0.000000 26.685604
RightHand 16.186805 -0.000000 9.417625
RightHandThumb1 -24.326973 -0.000000 -32.862282
LeftUpLeg 14.964097 5.854280 3.310453
LeftLeg 2.553832 -0.000000 -0.000000
LeftFoot -20.553031 17.573455 -17.017980
LeftToeBase 18.102846 -0.000000 -0.000000
RightUpLeg -76.352070 9.147201 18.591454
RightLeg 109.211868 -0.000000 -0.000000
RightFoot 16.660422 -34.918070 20.991916
RightToeBase 11.251638 -0.000000 -0.000000
927
root 5.784157 32.793200 0.314832 -8.682711 -8.958129 -10.548564
Spine 10.453206 13.082857 10.308666
Head 6.411599 -9.728418 2.470441
LeftShoulder -13.703817 1.353568 29.496633
LeftArm -12.282845 27.967119 -91.551473
LeftForeArm 2.016407 -0.000000 90.114244
LeftHand 24.161826 -0.000000 42.191961
LeftHandThumb1 -26.253704 0.000000 33.147579
RightShoulder -18.416308 -16.042385 -21.209308
RightArm 10.368088 -28.724663 86.719694
RightForeArm -15.882557 -0.000000 26.652021
RightHand 16.128152 -0.000000 9.179888
RightHandThumb1 -24.326973 -0.000000 -32.862282
LeftUpLeg 15.073084 5.827420 3.279157
LeftLeg 2.481752 -0.000000 -0.000000
LeftFoot -20.542827 17.582675 -17.009137
LeftToeBase 18.072319 -0.000000 -0.000000
RightUpLeg -76.347787 9.159420 18.542247
RightLeg 109.095888 -0.000000 -0.000000
RightFoot 16.664437 -34.856439 21.038108
RightToeBase 11.372230 -0.000000 -0.000000
928
root 5.780573 32.790135 0.336686 -8.693961 -8.936676 -10.514182
Spine 10.439692 13.016927 10.270728
Head 6.419203 -9.677173 2.454940
LeftShoulder -13.720674 1.374033 29.498629
LeftArm -12.221852 28.073091 -91.517093
LeftForeArm 1.945311 -0.000000 90.093053
LeftHand 24.144164 -0.000000 42.082424
LeftHandThumb1 -26.253704 0.000000 33.147579
RightShoulder -18.458670 -16.091312 -21.148826
RightArm 10.310648 -28.736966 86.834179
RightForeArm -15.960723 -0.000000 26.615662
RightHand 16.125914 -0.000000 9.197893
RightHandThumb1 -24.326973 -0.000000 -32.862282
LeftUpLeg 15.126206 5.718152 3.217868
LeftLeg 2.455556 -0.000000 -0.000000
LeftFoot -20.573910 17.661833 -17.048676
LeftToeBase 18.013286 -0.000000 -0.000000
RightUpLeg -76.367400 9.139593 18.518768
RightLeg 108.994420 -0.000000 -0.000000
RightFoot 16.720787 -34.798228 20.853767
RightToeBase 11.266179 -0.000000 -0.000000
929
root 5.776325 32.786655 0.357298 -8.682370 -8.908266 -10.493042
Spine 10.397649 12.950502 10.244727
Head 6.440063 -9.649357 2.435552
LeftShoulder -13.727327 1.397192 29.508573
LeftArm -12.143570 28.270857 -91.496212
LeftForeArm 2.321386 -0.000000 90.053543
LeftHand 23.706195 -0.000000 42.563811
LeftHandThumb1 -26.253704 0.000000 33.147579
RightShoulder -18.490944 -16.137288 -21.106420
RightArm 10.239058 -28.801447 86.949517
RightForeArm -15.786381 -0.000000 26.512654
RightHand 16.328902 -0.000000 8.034642
RightHandThumb1 -24.326973 -0.000000 -32.862282
LeftUpLeg 15.144161 5.602860 3.164950
LeftLeg 2.463494 -0.000000 -0.000000
LeftFoot -20.630927 17.748106 -17.038014
LeftToeBase 18.010518 -0.000000 -0.000000
RightUpLeg -76.401622 9.123581 18.498915
RightLeg 108.888499 -0.000000 -0.000000
RightFoot 16.749919 -34.897251 20.776508
RightToeBase 10.923569 -0.000000 -0.000000
930
root 5.770379 32.784031 0.379038 -8.659076 -8.902337 -10.475383
Spine 10.338801 12.903266 10.216172
Head 6.468897 -9.607039 2.446862
LeftShoulder -13.737149 1.430656 29.518317
LeftArm -12.059429 28.446086 -91.437792
LeftForeArm 2.341892 -0.000000 90.015253
LeftHand 23.654335 0.000000 42.678378
LeftHandThumb1 -26.253704 0.000000 33.147579
RightShoulder -18.512746 -16.174605 -21.072667
RightArm 10.119287 -28.807525 87.089559
RightForeArm -15.773663 0.000000 26.479607
RightHand 16.261905 0.000000 8.110736
RightHandThumb1 -24.326973 -0.000000 -32.862282
LeftUpLeg 15.150591 5.508284 3.124851
LeftLeg 2.465786 -0.000000 -0.000000
LeftFoot -20.660344 17.843587 -17.047421
LeftToeBase 17.969987 -0.000000 -0.000000
RightUpLeg -76.422066 9.112114 18.505292
RightLeg 108.747427 -0.000000 -0.000000
RightFoot 16.695245 -34.842262 20.847676
RightToeBase 11.831571 -0.000000 -0.000000
